# xmcd CD database file
#
# Track frame offsets:
#	150
#	14088
#	29364
#	41544
#	53783
#	66718
#	86553
#	96320
#	110054
#	121708
#	132078
#	142978
#
# Disc length: 2153 seconds
#
# Revision: 0
# Processed by: cddbd v1.5.2PL0 Copyright (c) Steve Scherf et al.
# Submitted via: CDex 1.51
#
DISCID=aa08670c
DTITLE=Chicken Shack - Accept Chicken Shack
DYEAR=1900
DGENRE=Blues
TTITLE0=Diary Of Your Life
TTITLE1=Pocket
TTITLE2=Never Ever
TTITLE3=Sad Clown
TTITLE4=Maudie
TTITLE5=Telling Your Fortune
TTITLE6=Tired Eyes
TTITLE7=Some Other Time
TTITLE8=Going Round
TTITLE9=Andalucian Blues
TTITLE10=You Know You Did You Did
TTITLE11=She Didn t Use Her Loaf
EXTD=
EXTT0=
EXTT1=
EXTT2=
EXTT3=
EXTT4=
EXTT5=
EXTT6=
EXTT7=
EXTT8=
EXTT9=
EXTT10=
EXTT11=
PLAYORDER=
